<svg width="21" height="17" viewBox="0 0 21 17" fill="none" xmlns="http://www.w3.org/2000/svg">
<path d="M0 14.46V2.08496C0 1.1709 0.738281 0.397461 1.6875 0.397461H18.5625C19.4766 0.397461 20.25 1.1709 20.25 2.08496V2.19043H17.5781L16.9805 3.84277L16.3828 2.19043H12.9727V4.40527L11.9883 2.19043H9.21094L6.36328 8.69434H8.64844V14.4248H15.8203L16.9453 13.1943L18.0703 14.4248H20.25V14.46C20.25 15.4092 19.4766 16.1475 18.5625 16.1475H1.6875C0.738281 16.1475 0 15.4092 0 14.46ZM15.4688 13.7217H9.42188V8.69434H13.7109V9.85449H10.793V10.6279H13.6406V11.7529H10.793V12.5615H13.7109V13.7217L16.1016 11.1904L13.7109 8.65918H15.5039L16.9805 10.2764L18.457 8.65918H20.25L17.8594 11.1904L20.25 13.7217H18.4219L16.9453 12.0693L15.4688 13.7217ZM18.8438 11.1904L20.25 9.71387V12.667L18.8438 11.1904ZM17.5781 7.95605H16.3828L15.082 4.40527V7.95605H12.1641L11.7422 6.93652H9.42188L9 7.95605H7.48828L9.70312 2.89355H11.4961L13.7109 7.95605V2.89355H15.8555L16.9805 6.05762L18.1055 2.89355H20.25V7.95605H18.8789V4.40527L17.5781 7.95605ZM9.91406 5.81152H11.25L10.582 4.15918L9.91406 5.81152Z" fill="#1E4992"/>
</svg>
