<svg width="21" height="17" viewBox="0 0 21 17" fill="none" xmlns="http://www.w3.org/2000/svg">
<path d="M18.2812 6.19824C18.2812 6.47949 18.0703 6.62012 17.7188 6.62012H17.543V5.74121H17.7188C18.0703 5.74121 18.2812 5.91699 18.2812 6.19824ZM18.5625 0.397461C19.4766 0.397461 20.25 1.1709 20.25 2.08496V14.46C20.25 15.4092 19.4766 16.1475 18.5625 16.1475H1.6875C0.738281 16.1475 0 15.4092 0 14.46V2.08496C0 1.1709 0.738281 0.397461 1.6875 0.397461H18.5625ZM16.9805 5.28418V8.16699H17.543V7.04199H17.6484L18.4219 8.16699H19.0898L18.2109 6.97168C18.6328 6.86621 18.8438 6.58496 18.8438 6.16309C18.8438 5.14355 17.7891 5.28418 16.9805 5.28418ZM15.0469 5.28418V8.16699H16.6289V7.70996H15.6094V6.90137H16.5938V6.44434H15.6094V5.77637H16.6289V5.28418H15.0469ZM12.6211 5.28418H11.9883L13.2188 8.27246H13.5352L14.7656 5.28418H14.168L13.3945 7.25293L12.6211 5.28418ZM10.6523 5.17871C9.77344 5.17871 9.07031 5.88184 9.07031 6.76074C9.07031 7.63965 9.77344 8.34277 10.6523 8.34277C11.5312 8.34277 12.2344 7.63965 12.2344 6.76074C12.2344 5.88184 11.5312 5.17871 10.6523 5.17871ZM8.92969 5.4248C7.83984 4.89746 6.67969 5.63574 6.67969 6.76074C6.67969 7.88574 7.875 8.58887 8.92969 8.09668V7.42871C8.22656 8.09668 7.27734 7.63965 7.27734 6.76074C7.27734 5.91699 8.22656 5.35449 8.92969 6.09277V5.4248ZM5.48438 7.74512C5.23828 7.74512 5.02734 7.60449 4.88672 7.3584L4.53516 7.70996C5.13281 8.62402 6.50391 8.34277 6.50391 7.32324C6.50391 6.86621 6.32812 6.65527 5.69531 6.40918C5.34375 6.30371 5.23828 6.19824 5.23828 6.05762C5.23828 5.74121 5.76562 5.56543 6.11719 5.95215L6.43359 5.56543C5.76562 4.96777 4.67578 5.28418 4.67578 6.09277C4.67578 6.47949 4.85156 6.69043 5.37891 6.86621C6.29297 7.21777 5.90625 7.74512 5.48438 7.74512ZM1.93359 8.16699C3.02344 8.16699 3.48047 7.39355 3.48047 6.76074C3.48047 5.88184 2.84766 5.28418 1.93359 5.28418H1.125V8.16699H1.93359ZM4.28906 8.16699V5.28418H3.72656V8.16699H4.28906ZM19.125 14.4951V9.39746C17.9297 10.1357 11.1445 13.792 4.5 15.0225H18.5977C18.8789 15.0225 19.125 14.8115 19.125 14.4951ZM2.60156 6.02246C2.77734 6.19824 2.91797 6.47949 2.91797 6.76074C2.91797 7.00684 2.77734 7.28809 2.60156 7.46387C2.42578 7.63965 2.17969 7.70996 1.82812 7.70996H1.6875V5.77637H1.82812C2.17969 5.77637 2.39062 5.84668 2.60156 6.02246Z" fill="#1E4992"/>
</svg>
