<svg width="21" height="17" viewBox="0 0 21 17" fill="none" xmlns="http://www.w3.org/2000/svg">
<path d="M16.9453 13.7217C16.9453 13.9678 16.8047 14.1084 16.5586 14.1084C16.3125 14.1084 16.1719 13.9326 16.1719 13.7217C16.1719 13.4756 16.3125 13.2998 16.5586 13.2998C16.8047 13.2998 16.9453 13.4756 16.9453 13.7217ZM6.04688 13.2998C6.25781 13.2998 6.39844 13.4756 6.43359 13.7217C6.43359 13.9678 6.25781 14.1084 6.04688 14.1084C5.80078 14.1084 5.625 13.9326 5.625 13.7217C5.625 13.4756 5.80078 13.2998 6.04688 13.2998ZM10.1602 13.2998C10.3359 13.2998 10.4766 13.4053 10.5117 13.5811H9.84375C9.84375 13.4053 9.98438 13.2998 10.1602 13.2998ZM13.957 13.2998C14.2031 13.2998 14.3438 13.4756 14.3438 13.7217C14.3438 13.9678 14.2031 14.1084 13.957 14.1084C13.7109 14.1084 13.5703 13.9326 13.5703 13.7217C13.5703 13.4756 13.7109 13.2998 13.957 13.2998ZM17.6836 14.2139V14.249C17.6836 14.2842 17.6836 14.2842 17.6836 14.2842C17.6836 14.3193 17.6836 14.3193 17.6484 14.3193C17.6484 14.3193 17.6484 14.3545 17.6133 14.3545C17.6133 14.3545 17.6133 14.3545 17.5781 14.3545C17.5781 14.3545 17.5781 14.3545 17.543 14.3545C17.543 14.3545 17.543 14.3193 17.5078 14.3193C17.5078 14.3193 17.5078 14.3193 17.5078 14.2842C17.4727 14.2842 17.4727 14.2842 17.4727 14.249C17.4727 14.249 17.4727 14.2139 17.5078 14.2139V14.1787C17.543 14.1787 17.543 14.1787 17.543 14.1787C17.5781 14.1436 17.5781 14.1436 17.5781 14.1436C17.6133 14.1436 17.6133 14.1436 17.6133 14.1787C17.6484 14.1787 17.6484 14.1787 17.6484 14.1787C17.6836 14.1787 17.6836 14.2139 17.6836 14.2139ZM17.6133 14.2842V14.249C17.6484 14.249 17.6484 14.249 17.6484 14.2139C17.6484 14.2139 17.6484 14.2139 17.6133 14.2139C17.6133 14.2139 17.6133 14.1787 17.5781 14.1787H17.543V14.3193H17.5781V14.249L17.6133 14.3193H17.6484L17.6133 14.2842ZM20.25 2.12012V14.4951C20.25 15.4443 19.4766 16.1826 18.5625 16.1826H1.6875C0.738281 16.1826 0 15.4443 0 14.4951V2.12012C0 1.20605 0.738281 0.432617 1.6875 0.432617H18.5625C19.4766 0.432617 20.25 1.20605 20.25 2.12012ZM2.25 7.04199C2.25 9.74902 4.42969 11.9287 7.10156 11.9287C8.05078 11.9287 9 11.6123 9.80859 11.085C7.24219 9.01074 7.24219 5.07324 9.80859 2.99902C9 2.47168 8.05078 2.19043 7.10156 2.19043C4.42969 2.19043 2.25 4.37012 2.25 7.04199ZM10.125 10.874C12.5859 8.94043 12.5859 5.17871 10.125 3.20996C7.62891 5.17871 7.62891 8.94043 10.125 10.874ZM5.09766 13.5459C5.09766 13.2295 4.92188 13.0537 4.60547 13.0186C4.42969 13.0186 4.25391 13.0889 4.14844 13.2646C4.04297 13.124 3.90234 13.0186 3.72656 13.0186C3.58594 13.0186 3.44531 13.0889 3.33984 13.2295V13.0537H3.05859V14.3545H3.33984C3.33984 13.6865 3.23438 13.2998 3.65625 13.2998C4.00781 13.2998 3.9375 13.6514 3.9375 14.3545H4.21875C4.21875 13.7217 4.14844 13.2998 4.53516 13.2998C4.88672 13.2998 4.81641 13.6514 4.81641 14.3545H5.09766V13.5459ZM6.67969 13.0537H6.39844V13.2295C6.32812 13.124 6.1875 13.0186 6.01172 13.0186C5.625 13.0186 5.34375 13.335 5.34375 13.7217C5.34375 14.1084 5.625 14.3896 6.01172 14.3896C6.1875 14.3896 6.32812 14.3193 6.39844 14.2139V14.3545H6.67969V13.0537ZM8.12109 13.9678C8.12109 13.4404 7.3125 13.6865 7.3125 13.4404C7.3125 13.2295 7.73438 13.2646 7.94531 13.4053L8.08594 13.1592C7.73438 12.9482 6.99609 12.9482 6.99609 13.4404C6.99609 13.9678 7.80469 13.7568 7.80469 13.9678C7.80469 14.2139 7.34766 14.1787 7.10156 14.0029L6.96094 14.249C7.34766 14.4951 8.12109 14.46 8.12109 13.9678ZM9.35156 14.2842L9.28125 14.0732C9.14062 14.1436 8.85938 14.2139 8.85938 13.8975V13.335H9.31641V13.0537H8.85938V12.667H8.54297V13.0537H8.29688V13.335H8.54297V13.8975C8.54297 14.5303 9.17578 14.4248 9.35156 14.2842ZM9.80859 13.8271H10.793C10.793 13.2646 10.5117 13.0186 10.1602 13.0186C9.80859 13.0186 9.52734 13.2998 9.52734 13.7217C9.52734 14.4248 10.3359 14.5654 10.7227 14.2139L10.582 14.0029C10.3008 14.2139 9.91406 14.2139 9.80859 13.8271ZM11.8828 13.0537C11.7422 12.9834 11.4961 13.0186 11.3555 13.2295V13.0537H11.0742V14.3545H11.3555V13.6162C11.3555 13.2295 11.707 13.2646 11.8125 13.335L11.8828 13.0537ZM12.2695 13.7217C12.2695 13.2998 12.6914 13.1943 13.0078 13.4053L13.1484 13.1943C12.7266 12.8779 11.9883 13.0537 11.9883 13.7217C11.9883 14.4248 12.7617 14.5654 13.1484 14.249L13.0078 14.0029C12.6914 14.249 12.2695 14.1084 12.2695 13.7217ZM14.625 13.0537H14.3438V13.2295C14.0273 12.8428 13.2891 13.0537 13.2891 13.7217C13.2891 14.3896 14.0625 14.5654 14.3438 14.2139V14.3545H14.625V13.0537ZM15.7852 13.0537C15.7148 13.0186 15.3984 12.9834 15.2578 13.2295V13.0537H14.9766V14.3545H15.2578V13.6162C15.2578 13.2295 15.5742 13.2646 15.7148 13.335L15.7852 13.0537ZM17.2266 12.5615H16.9453V13.2295C16.6641 12.8428 15.8906 13.0537 15.8906 13.7217C15.8906 14.3896 16.6641 14.5654 16.9453 14.2139V14.3545H17.2266V12.5615ZM17.4727 9.88965V10.0654H17.5078V9.88965H17.5781H17.4023H17.4727ZM17.7188 14.249V14.2139C17.6836 14.1787 17.6836 14.1787 17.6836 14.1787C17.6836 14.1436 17.6484 14.1436 17.6484 14.1436C17.6133 14.1436 17.6133 14.1084 17.5781 14.1084L17.543 14.1436C17.5078 14.1436 17.5078 14.1436 17.5078 14.1787C17.4727 14.1787 17.4727 14.1787 17.4727 14.2139V14.249C17.4727 14.2842 17.4727 14.2842 17.4727 14.3193C17.4727 14.3193 17.4727 14.3193 17.5078 14.3545C17.5078 14.3545 17.5078 14.3545 17.543 14.3896H17.5781C17.6133 14.3896 17.6133 14.3896 17.6484 14.3896C17.6484 14.3545 17.6836 14.3545 17.6836 14.3545C17.6836 14.3193 17.6836 14.3193 17.7188 14.3193C17.7188 14.2842 17.7188 14.2842 17.7188 14.249ZM17.8242 9.88965H17.7891L17.7188 9.99512L17.6836 9.88965H17.6133V10.0654H17.6484V9.9248L17.7188 10.0303H17.7539L17.7891 9.9248V10.0654H17.8242V9.88965ZM18 7.04199C18 4.37012 15.7852 2.19043 13.1133 2.19043C12.1641 2.19043 11.2148 2.47168 10.4414 2.99902C12.9727 5.07324 13.0078 9.01074 10.4414 11.085C11.2148 11.6123 12.1641 11.8936 13.1133 11.8936C15.7852 11.9287 18 9.74902 18 7.04199Z" fill="#1E4992"/>
</svg>
