<svg width="21" height="17" viewBox="0 0 21 17" fill="none" xmlns="http://www.w3.org/2000/svg">
<path d="M16.5234 7.42871C16.5234 7.42871 16.7695 8.72949 16.8398 9.01074H15.6797C15.7852 8.69434 16.2422 7.46387 16.2422 7.46387C16.207 7.49902 16.3477 7.14746 16.418 6.93652L16.5234 7.42871ZM20.25 2.08496V14.46C20.25 15.4092 19.4766 16.1475 18.5625 16.1475H1.6875C0.738281 16.1475 0 15.4092 0 14.46V2.08496C0 1.1709 0.738281 0.397461 1.6875 0.397461H18.5625C19.4766 0.397461 20.25 1.1709 20.25 2.08496ZM5.34375 10.9443L7.55859 5.45996H6.08203L4.67578 9.18652L4.53516 8.44824L4.04297 5.95215C3.97266 5.60059 3.72656 5.49512 3.41016 5.45996H1.125V5.60059C1.65234 5.74121 2.14453 5.91699 2.60156 6.19824L3.86719 10.9443H5.34375ZM8.64844 10.9443L9.5625 5.45996H8.12109L7.24219 10.9443H8.64844ZM13.5703 9.15137C13.6055 8.51855 13.2188 8.06152 12.4102 7.6748C11.918 7.42871 11.6016 7.25293 11.6016 7.00684C11.6016 6.76074 11.8477 6.51465 12.4102 6.51465C12.8672 6.51465 13.2188 6.62012 13.4648 6.72559L13.6055 6.7959L13.7812 5.60059C13.5 5.49512 13.0781 5.38965 12.5156 5.38965C11.1094 5.38965 10.125 6.12793 10.125 7.18262C10.125 7.95605 10.8281 8.41309 11.3555 8.65918C11.918 8.94043 12.0938 9.11621 12.0938 9.32715C12.0938 9.71387 11.6719 9.88965 11.25 9.88965C10.6875 9.88965 10.4062 9.78418 9.91406 9.57324L9.73828 9.50293L9.5625 10.7334C9.87891 10.874 10.4766 11.0146 11.1094 11.0146C12.6211 11.0146 13.5703 10.2764 13.5703 9.15137ZM18.5625 10.9443L17.4023 5.45996H16.3125C15.9609 5.45996 15.7148 5.56543 15.5742 5.91699L13.4648 10.9443H14.9766C14.9766 10.9443 15.1875 10.2764 15.2578 10.1357H17.0859C17.1211 10.3115 17.2266 10.9443 17.2266 10.9443H18.5625Z" fill="#1E4992"/>
</svg>
