<svg width="21" height="17" viewBox="0 0 21 17" fill="none" xmlns="http://www.w3.org/2000/svg">
<path d="M0 3.17578C0 1.94531 0.984375 0.925781 2.25 0.925781H18C19.2305 0.925781 20.25 1.94531 20.25 3.17578V14.4258C20.25 15.6914 19.2305 16.6758 18 16.6758H2.25C0.984375 16.6758 0 15.6914 0 14.4258V3.17578ZM3.9375 9.92578C3.62109 9.92578 3.375 10.207 3.375 10.4883C3.375 10.8047 3.62109 11.0508 3.9375 11.0508H16.3125C16.5938 11.0508 16.875 10.8047 16.875 10.4883C16.875 10.207 16.5938 9.92578 16.3125 9.92578H3.9375ZM3.375 12.7383C3.375 13.0547 3.62109 13.3008 3.9375 13.3008H6.1875C6.46875 13.3008 6.75 13.0547 6.75 12.7383C6.75 12.457 6.46875 12.1758 6.1875 12.1758H3.9375C3.62109 12.1758 3.375 12.457 3.375 12.7383ZM7.875 12.7383C7.875 13.0547 8.12109 13.3008 8.4375 13.3008H12.9375C13.2188 13.3008 13.5 13.0547 13.5 12.7383C13.5 12.457 13.2188 12.1758 12.9375 12.1758H8.4375C8.12109 12.1758 7.875 12.457 7.875 12.7383ZM14.3438 3.17578C13.8516 3.17578 13.5 3.5625 13.5 4.01953V5.70703C13.5 6.19922 13.8516 6.55078 14.3438 6.55078H17.1562C17.6133 6.55078 18 6.19922 18 5.70703V4.01953C18 3.5625 17.6133 3.17578 17.1562 3.17578H14.3438Z" fill="#1E4992"/>
</svg>
