<svg width="13" height="13" viewBox="0 0 13 13" fill="none" xmlns="http://www.w3.org/2000/svg">
<path d="M1.75 0.625H10.5C11.457 0.625 12.25 1.41797 12.25 2.375V11.125C12.25 12.1094 11.457 12.875 10.5 12.875H1.75C0.765625 12.875 0 12.1094 0 11.125V2.375C0 1.41797 0.765625 0.625 1.75 0.625ZM9.21484 5.46484H9.1875C9.46094 5.21875 9.46094 4.80859 9.1875 4.53516C8.94141 4.28906 8.53125 4.28906 8.28516 4.53516L5.25 7.59766L3.96484 6.3125C3.69141 6.03906 3.28125 6.03906 3.03516 6.3125C2.76172 6.55859 2.76172 6.96875 3.03516 7.21484L4.78516 8.96484C5.03125 9.23828 5.44141 9.23828 5.71484 8.96484L9.21484 5.46484Z" fill="#7B8EAE"/>
</svg>
