<svg width="16" height="19" viewBox="0 0 16 19" fill="none" xmlns="http://www.w3.org/2000/svg">
<path d="M4.5 0.25C5.09766 0.25 5.625 0.777344 5.625 1.375V2.5H10.125V1.375C10.125 0.777344 10.6172 0.25 11.25 0.25C11.8477 0.25 12.375 0.777344 12.375 1.375V2.5H14.0625C14.9766 2.5 15.75 3.27344 15.75 4.1875V5.875H0V4.1875C0 3.27344 0.738281 2.5 1.6875 2.5H3.375V1.375C3.375 0.777344 3.86719 0.25 4.5 0.25ZM0 7H15.75V16.5625C15.75 17.5117 14.9766 18.25 14.0625 18.25H1.6875C0.738281 18.25 0 17.5117 0 16.5625V7ZM2.25 9.8125V10.9375C2.25 11.2539 2.49609 11.5 2.8125 11.5H3.9375C4.21875 11.5 4.5 11.2539 4.5 10.9375V9.8125C4.5 9.53125 4.21875 9.25 3.9375 9.25H2.8125C2.49609 9.25 2.25 9.53125 2.25 9.8125ZM6.75 9.8125V10.9375C6.75 11.2539 6.99609 11.5 7.3125 11.5H8.4375C8.71875 11.5 9 11.2539 9 10.9375V9.8125C9 9.53125 8.71875 9.25 8.4375 9.25H7.3125C6.99609 9.25 6.75 9.53125 6.75 9.8125ZM11.8125 9.25C11.4961 9.25 11.25 9.53125 11.25 9.8125V10.9375C11.25 11.2539 11.4961 11.5 11.8125 11.5H12.9375C13.2188 11.5 13.5 11.2539 13.5 10.9375V9.8125C13.5 9.53125 13.2188 9.25 12.9375 9.25H11.8125ZM2.25 14.3125V15.4375C2.25 15.7539 2.49609 16 2.8125 16H3.9375C4.21875 16 4.5 15.7539 4.5 15.4375V14.3125C4.5 14.0312 4.21875 13.75 3.9375 13.75H2.8125C2.49609 13.75 2.25 14.0312 2.25 14.3125ZM7.3125 13.75C6.99609 13.75 6.75 14.0312 6.75 14.3125V15.4375C6.75 15.7539 6.99609 16 7.3125 16H8.4375C8.71875 16 9 15.7539 9 15.4375V14.3125C9 14.0312 8.71875 13.75 8.4375 13.75H7.3125ZM11.25 14.3125V15.4375C11.25 15.7539 11.4961 16 11.8125 16H12.9375C13.2188 16 13.5 15.7539 13.5 15.4375V14.3125C13.5 14.0312 13.2188 13.75 12.9375 13.75H11.8125C11.4961 13.75 11.25 14.0312 11.25 14.3125Z" fill="#7B8EAE"/>
</svg>
