<svg width="14" height="19" viewBox="0 0 14 19" fill="none" xmlns="http://www.w3.org/2000/svg">
<path d="M7.55859 17.8281C7.13672 18.3555 6.32812 18.3555 5.90625 17.8281C4.11328 15.543 0 10.0938 0 7C0 3.27344 3.02344 0.25 6.75 0.25C10.4766 0.25 13.5 3.27344 13.5 7C13.5 10.0938 9.38672 15.543 7.55859 17.8281ZM6.75 4.75C5.94141 4.75 5.20312 5.20703 4.78125 5.875C4.39453 6.57812 4.39453 7.45703 4.78125 8.125C5.20312 8.82812 5.94141 9.25 6.75 9.25C7.52344 9.25 8.26172 8.82812 8.68359 8.125C9.07031 7.45703 9.07031 6.57812 8.68359 5.875C8.26172 5.20703 7.52344 4.75 6.75 4.75Z" fill="#1E4992"/>
</svg>
