<svg width="22" height="17" viewBox="0 0 22 17" fill="none" xmlns="http://www.w3.org/2000/svg">
<path d="M2.01923 0.724609C0.904447 0.724609 0 1.59421 0 2.66604C0 3.73787 0.298678 3.85112 0.807692 4.21918L9.96154 10.82C10.4411 11.1638 11.0974 11.1638 11.5769 10.82L20.7308 4.21918C21.2398 3.85112 21.5385 3.27678 21.5385 2.66604C21.5385 1.59421 20.634 0.724609 19.5192 0.724609H2.01923V0.724609ZM0 5.25461V13.6675C0 15.0952 1.20733 16.256 2.69231 16.256H18.8462C20.3311 16.256 21.5385 15.0952 21.5385 13.6675V5.25461L12.3846 11.8555C11.4255 12.5471 10.113 12.5471 9.15385 11.8555L0 5.25461Z" fill="#1E4992"/>
</svg>
