<svg width="30" height="30" viewBox="0 0 30 30" fill="none" xmlns="http://www.w3.org/2000/svg">
<g clip-path="url(#clip0_6172_1916)">
<path d="M29.0933 8.15276C28.9306 13.6032 27.4589 18.5522 24.3072 22.9476C22.7118 25.1812 20.8038 27.0957 18.4921 28.5934C17.7367 29.0818 16.9488 29.492 16.1022 29.7981C15.3729 30.0586 14.6566 30.0586 13.9273 29.7981C12.7877 29.3944 11.7589 28.7822 10.7886 28.079C8.38573 26.3338 6.4452 24.1588 4.87585 21.6518C3.09812 18.8126 1.95204 15.7325 1.379 12.4375C1.09248 10.8291 0.949219 9.19466 0.949219 7.55367C0.949219 6.34247 1.58738 5.35268 2.70741 4.89034C6.43218 3.33401 10.17 1.77768 13.8947 0.221355C14.7217 -0.123772 15.5227 -0.0456302 16.3367 0.299497C18.7851 1.33488 21.2401 2.35072 23.6885 3.37308C24.9193 3.88752 26.1565 4.3759 27.3677 4.91638C28.4812 5.41128 29.0608 6.29038 29.0803 7.52112C29.0803 7.76205 29.0803 7.99648 29.0803 8.15276H29.0933ZM2.84416 8.26346C2.90277 10.0347 3.13068 11.7864 3.54744 13.5055C4.27025 16.4684 5.50099 19.1968 7.23965 21.6974C8.54852 23.5728 10.0788 25.2463 11.9151 26.6203C12.6575 27.1738 13.4389 27.6687 14.3245 27.9813C14.7543 28.1311 15.1776 28.1766 15.6139 28.0204C15.8678 27.9292 16.1218 27.838 16.3692 27.7143C17.5153 27.1543 18.5181 26.3924 19.4558 25.5394C21.8001 23.4035 23.6039 20.8704 24.9323 17.9921C26.4561 14.6906 27.1789 11.2198 27.1984 7.59275C27.1984 7.46251 27.1789 7.33227 27.1463 7.20855C27.0486 6.86342 26.7751 6.70063 26.4626 6.57039C22.8159 5.05313 19.1758 3.54239 15.5357 2.01211C15.1776 1.86234 14.8585 1.86234 14.5068 2.01211C11.6807 3.19726 8.85458 4.3759 6.02845 5.55454C5.16888 5.91269 4.30932 6.27084 3.44976 6.629C3.06556 6.79179 2.85067 7.10436 2.85067 7.5146C2.85067 7.76205 2.85067 8.01602 2.85067 8.26346H2.84416Z" fill="#7B8EAE"/>
<path d="M13.4717 16.5011C13.5172 16.436 13.5498 16.3839 13.5954 16.3448C15.3992 14.541 17.1964 12.7373 19.0002 10.9335C19.3779 10.5558 19.8988 10.5102 20.2961 10.8228C20.6998 11.1419 20.7714 11.7409 20.4523 12.1447C20.3937 12.2163 20.3286 12.2814 20.2635 12.3465C18.2513 14.3587 16.2392 16.3774 14.2205 18.3895C13.7191 18.8909 13.1851 18.8909 12.6837 18.3895C11.6874 17.3932 10.6976 16.4034 9.70131 15.4071C9.26502 14.9643 9.27153 14.3261 9.72085 13.9615C10.0855 13.6619 10.5934 13.6684 10.9451 13.981C11.1339 14.1503 11.3097 14.3392 11.4921 14.515C12.1432 15.1662 12.7879 15.8108 13.4652 16.4946L13.4717 16.5011Z" fill="#7B8EAE"/>
</g>
<defs>
<clipPath id="clip0_6172_1916">
<rect width="28.1441" height="30" fill="white" transform="translate(0.949219)"/>
</clipPath>
</defs>
</svg>
